<?xml version="1.0" encoding="UTF-8" standalone="no"?>
<!-- Created with Inkscape (http://www.inkscape.org/) -->

<svg
   width="100mm"
   height="100mm"
   viewBox="0 0 100 100"
   version="1.1"
   id="svg8"
   inkscape:version="1.3 (0e150ed6c4, 2023-07-21)"
   sodipodi:docname="logo.svg"
   inkscape:export-filename="C:\Users\lobedama\privat\repos\universalis\Grafiken\Logo.png"
   inkscape:export-xdpi="93.980003"
   inkscape:export-ydpi="93.980003"
   xmlns:inkscape="http://www.inkscape.org/namespaces/inkscape"
   xmlns:sodipodi="http://sodipodi.sourceforge.net/DTD/sodipodi-0.dtd"
   xmlns="http://www.w3.org/2000/svg"
   xmlns:svg="http://www.w3.org/2000/svg"
   xmlns:rdf="http://www.w3.org/1999/02/22-rdf-syntax-ns#"
   xmlns:cc="http://creativecommons.org/ns#"
   xmlns:dc="http://purl.org/dc/elements/1.1/">
  <defs
     id="defs2" />
  <sodipodi:namedview
     id="base"
     pagecolor="#ffffff"
     bordercolor="#666666"
     borderopacity="1.0"
     inkscape:pageopacity="0.0"
     inkscape:pageshadow="2"
     inkscape:zoom="0.98994949"
     inkscape:cx="102.02541"
     inkscape:cy="241.93154"
     inkscape:document-units="mm"
     inkscape:current-layer="g841"
     showgrid="false"
     inkscape:window-width="1920"
     inkscape:window-height="1009"
     inkscape:window-x="1912"
     inkscape:window-y="-8"
     inkscape:window-maximized="1"
     inkscape:showpageshadow="2"
     inkscape:pagecheckerboard="0"
     inkscape:deskcolor="#d1d1d1" />
  <metadata
     id="metadata5">
    <rdf:RDF>
      <cc:Work
         rdf:about="">
        <dc:format>image/svg+xml</dc:format>
        <dc:type
           rdf:resource="http://purl.org/dc/dcmitype/StillImage" />
        <dc:title />
      </cc:Work>
    </rdf:RDF>
  </metadata>
  <g
     inkscape:label="Ebene 1"
     inkscape:groupmode="layer"
     id="layer1"
     transform="translate(0,-197)">
    <g
       id="g841">
      <rect
         y="197"
         x="0"
         height="100"
         width="100"
         id="rect815"
         style="opacity:1;fill:#495664;fill-opacity:1;stroke:none;stroke-width:0.44582286;stroke-miterlimit:4;stroke-dasharray:none;stroke-opacity:1" />
      <rect
         y="204.76117"
         x="7.2886887"
         height="84.477676"
         width="85.422623"
         id="rect828"
         style="opacity:1;fill:none;fill-opacity:1;stroke:#f8fceb;stroke-width:1.646;stroke-miterlimit:4;stroke-dasharray:none;stroke-opacity:1" />
      <path
         inkscape:connector-curvature="0"
         id="path830"
         d="M 11.446428,271.86458 H 88.553571"
         style="fill:none;stroke:#f8fceb;stroke-width:1.64600003;stroke-linecap:butt;stroke-linejoin:miter;stroke-miterlimit:4;stroke-dasharray:none;stroke-opacity:1" />
      <path
         style="font-size:10.5833px;line-height:1.25;font-family:'Nova Round';-inkscape-font-specification:'Nova Round, Normal';letter-spacing:0px;word-spacing:0px;fill:#f8fceb;stroke-width:0.264583"
         d="m 23.156658,276.13898 v 5.52936 q 0,1.11621 -0.69763,1.83451 -0.733803,0.74931 -1.912022,0.74931 -1.162716,0 -1.912021,-0.74931 -0.69763,-0.69246 -0.69763,-1.83451 v -5.06427 l 0.981849,-0.46509 h 0.05168 v 5.52936 q 0,0.69246 0.372069,1.12138 0.459919,0.53226 1.204057,0.53226 0.744139,0 1.204057,-0.53226 0.37207,-0.42892 0.37207,-1.12138 v -5.06427 l 0.981849,-0.46509 z m 2.067051,8.21653 v -5.52936 q 0,-1.11621 0.697629,-1.83451 0.733803,-0.74931 1.912022,-0.74931 1.162716,0 1.912022,0.74931 0.69763,0.69246 0.69763,1.83451 v 5.06427 l -0.98185,0.46509 h -0.05168 v -5.52936 q 0,-0.69246 -0.372069,-1.12138 -0.459919,-0.53226 -1.204057,-0.53226 -0.744138,0 -1.204057,0.53226 -0.372069,0.42892 -0.372069,1.12138 v 5.06427 l -0.981849,0.46509 z m 7.286353,0 v -7.75144 l 0.981849,-0.46509 h 0.05168 v 7.75144 l -0.981849,0.46509 z m 4.728378,0 -2.63549,-7.79278 0.894,-0.42375 h 0.05168 l 2.139398,6.49054 2.020542,-6.49054 h 0.05168 l 0.893999,0.42375 -2.470125,7.36903 -0.894,0.42375 z m 4.475166,-0.20671 v -7.54473 l 0.547768,-0.25838 h 3.276276 v 0.0517 l -0.418578,0.88884 h -2.371941 v 2.49079 h 2.790519 v 0.0517 l -0.418578,0.88883 h -2.371941 v 2.4908 h 3.653512 v 0.0517 l -0.418578,0.88883 z m 5.978945,0.20671 v -7.75144 l 0.547768,-0.25838 h 1.958531 q 1.178218,0 1.912021,0.7493 0.69763,0.71314 0.69763,1.83451 0,1.12654 -0.69763,1.83451 -0.41341,0.41858 -0.966346,0.60461 l 1.787999,2.55798 -0.909502,0.42891 h -0.05168 l -1.989537,-2.8422 h -1.255733 v 2.37711 l -0.981849,0.46509 z m 1.033525,-3.77237 h 1.472774 q 0.676959,0 1.204057,-0.53226 0.372069,-0.37724 0.372069,-1.12138 0,-0.69246 -0.372069,-1.12137 -0.459919,-0.53227 -1.204057,-0.53227 h -1.472774 z m 11.022546,1.12654 q 0,1.0542 -0.692462,1.79317 -0.707965,0.74931 -1.912022,0.74931 -1.204057,0 -1.912022,-0.74931 -0.697629,-0.73897 -0.697629,-1.73115 l 0.981849,-0.46509 h 0.05168 v 0.42374 q 0,0.63045 0.372069,1.05937 0.459919,0.53226 1.204057,0.53226 0.738971,0 1.204057,-0.53226 0.366902,-0.41858 0.366902,-1.0697 0,-0.61495 -0.299723,-0.96635 -0.41341,-0.48575 -1.271236,-0.48575 -0.940508,0 -1.627802,-0.62012 -0.516763,-0.46509 -0.516763,-1.34875 0,-1.03869 0.640786,-1.56062 0.60978,-0.4961 1.503779,-0.4961 0.894,0 1.50378,0.4961 0.640785,0.52193 0.640785,1.43143 l -0.981849,0.46509 h -0.05168 v -0.41341 q 0,-0.58911 -0.335896,-0.8785 -0.32556,-0.28422 -0.775144,-0.28422 -0.50126,0 -0.80615,0.31523 -0.30489,0.31522 -0.30489,0.84749 0,0.51159 0.232544,0.76997 0.310057,0.34623 0.878496,0.34623 1.250566,0 1.912022,0.58911 0.692462,0.61495 0.692462,1.78283 z m 1.865514,2.64583 v -5.52936 q 0,-1.11621 0.697629,-1.83451 0.733803,-0.74931 1.912022,-0.74931 1.157549,0 1.912022,0.74931 0.69763,0.69246 0.69763,1.83451 v 5.06427 l -0.981849,0.46509 h -0.05168 v -3.63801 h -3.152252 v 3.17292 l -0.981849,0.46509 z m 1.033525,-4.57852 h 3.152252 v -0.95084 q 0,-0.69246 -0.372069,-1.12138 -0.459919,-0.53226 -1.204057,-0.53226 -0.744138,0 -1.204057,0.53226 -0.372069,0.42892 -0.372069,1.12138 z m 6.252829,4.37181 v -7.54473 l 0.981849,-0.46509 h 0.05168 v 7.06932 h 3.539824 v 0.0517 l -0.418577,0.88883 z m 5.0126,0.20671 v -7.75144 l 0.981849,-0.46509 h 0.05168 v 7.75144 l -0.981849,0.46509 z m 8.108004,-2.64583 q 0,1.0542 -0.692462,1.79317 -0.707964,0.74931 -1.912021,0.74931 -1.204057,0 -1.912022,-0.74931 -0.69763,-0.73897 -0.69763,-1.73115 l 0.981849,-0.46509 h 0.05168 v 0.42374 q 0,0.63045 0.37207,1.05937 0.459918,0.53226 1.204057,0.53226 0.73897,0 1.204057,-0.53226 0.366901,-0.41858 0.366901,-1.0697 0,-0.61495 -0.299722,-0.96635 -0.41341,-0.48575 -1.271236,-0.48575 -0.940508,0 -1.627803,-0.62012 -0.516763,-0.46509 -0.516763,-1.34875 0,-1.03869 0.640786,-1.56062 0.60978,-0.4961 1.50378,-0.4961 0.893999,0 1.503779,0.4961 0.640786,0.52193 0.640786,1.43143 l -0.981849,0.46509 h -0.05168 v -0.41341 q 0,-0.58911 -0.335895,-0.8785 -0.325561,-0.28422 -0.775144,-0.28422 -0.50126,0 -0.80615,0.31523 -0.30489,0.31522 -0.30489,0.84749 0,0.51159 0.232543,0.76997 0.310058,0.34623 0.878497,0.34623 1.250565,0 1.912021,0.58911 0.692462,0.61495 0.692462,1.78283 z"
         id="text834"
         aria-label="UNIVERSALIS" />
    </g>
  </g>
</svg>
